<svg xmlns="http://www.w3.org/2000/svg" xmlns:xlink="http://www.w3.org/1999/xlink" viewBox="0 0 331.46 96.64">
    <defs>
        <style>
            .cls-1{opacity:0.6;}.cls-2{fill:#fff;}.cls-3{fill:url(#linear-gradient);}.cls-4{fill:url(#linear-gradient-2);}.cls-5{fill:url(#linear-gradient-3);}.cls-6{fill:#fcfcfc;}
        </style>
        <linearGradient id="linear-gradient" x1="-241.24" y1="-1708.88" x2="-210.69" y2="-1708.88"
                        gradientTransform="translate(1082.43 -1347) rotate(-135.52)" gradientUnits="userSpaceOnUse">
            <stop offset="0" stop-color="#f3222d"/>
            <stop offset="1" stop-color="#630207"/>
        </linearGradient>
        <linearGradient id="linear-gradient-2" x1="-253.91" y1="-1725.67" x2="-194.95" y2="-1725.67"
                        gradientTransform="translate(1082.43 -1347) rotate(-135.52)" gradientUnits="userSpaceOnUse">
            <stop offset="0" stop-color="#630207"/>
            <stop offset="1" stop-color="#f3222d"/>
        </linearGradient>
        <linearGradient id="linear-gradient-3" x1="-1026.37" y1="-2288.02" x2="-1023.62" y2="-2240.79"
                        gradientTransform="translate(1440.23 -2018.25) rotate(-121.76)" xlink:href="#linear-gradient"/>
    </defs>
    <title>e-nabiz</title>
    <g id="Layer_2" data-name="Layer 2">
        <g id="Layer_1-2" data-name="Layer 1">
            <g class="cls-1">
                <path class="cls-2"
                      d="M83.08,78.63,81.47,86.1l0,0,9-7.5h1.86l-7.17,5.84,5,8.15H88.7l-4.44-7.33-3.12,2.49-1,4.84H78.77l3-14Z"/>
                <path class="cls-2" d="M95.54,82.51,93.37,92.62H92.15l2.16-10.11Zm.85-3.88-.43,2H94.72l.43-2Z"/>
                <path class="cls-2"
                      d="M98.41,90.56a2.21,2.21,0,0,0,.65.79,2.65,2.65,0,0,0,.92.41,4.7,4.7,0,0,0,1,.12,3.76,3.76,0,0,0,.86-.11,2.88,2.88,0,0,0,.83-.33,2.11,2.11,0,0,0,.61-.58,1.42,1.42,0,0,0,.25-.85,1.33,1.33,0,0,0-.25-.84,2.47,2.47,0,0,0-.62-.58,5.55,5.55,0,0,0-.88-.43l-1-.38q-.49-.19-1-.42a3.89,3.89,0,0,1-.87-.55,2.62,2.62,0,0,1-.61-.76A2.23,2.23,0,0,1,98.15,85a2.26,2.26,0,0,1,.35-1.27,3,3,0,0,1,.91-.85,4.33,4.33,0,0,1,1.21-.49,5.77,5.77,0,0,1,1.27-.15,5.6,5.6,0,0,1,1.47.17,3,3,0,0,1,1.15.57,2.53,2.53,0,0,1,.74,1,3.57,3.57,0,0,1,.25,1.5h-1.24a2.21,2.21,0,0,0-.13-1,2,2,0,0,0-.5-.69,2.22,2.22,0,0,0-.78-.4,3.71,3.71,0,0,0-1-.13,5.08,5.08,0,0,0-.85.08,2.61,2.61,0,0,0-.8.27,1.6,1.6,0,0,0-.61.52,1.44,1.44,0,0,0-.25.86,1.16,1.16,0,0,0,.18.63,2.17,2.17,0,0,0,.47.49,4.34,4.34,0,0,0,.68.39l.81.35,1.11.44a5.34,5.34,0,0,1,1.06.56,3.2,3.2,0,0,1,.8.8,2,2,0,0,1,.32,1.18,2.74,2.74,0,0,1-.36,1.45,2.88,2.88,0,0,1-1,1,4.33,4.33,0,0,1-1.31.52,7.23,7.23,0,0,1-1.45.16,5.27,5.27,0,0,1-1.44-.2,3.27,3.27,0,0,1-1.23-.63,3,3,0,0,1-.84-1.1A3.62,3.62,0,0,1,97,89.33h1.22A2.75,2.75,0,0,0,98.41,90.56Zm1.12,5.3a3.28,3.28,0,0,0,.76.07,1.7,1.7,0,0,0,.74-.16.63.63,0,0,0,.35-.64.65.65,0,0,0-.32-.62,1.46,1.46,0,0,0-.73-.18,1.62,1.62,0,0,0-.75.17l-.31-.35,1.41-1.65h.72l-1.13,1.2,0,0a1.27,1.27,0,0,1,.28-.06l.42,0a1.7,1.7,0,0,1,1,.32,1.2,1.2,0,0,1,.43,1,1.31,1.31,0,0,1-.19.72,1.67,1.67,0,0,1-.5.49,2.56,2.56,0,0,1-.68.28,2.66,2.66,0,0,1-.72.1,4.25,4.25,0,0,1-1-.11,4.88,4.88,0,0,1-.87-.32l.28-.57C99.08,95.72,99.33,95.8,99.53,95.86Z"/>
                <path class="cls-2" d="M110.56,82.51l-2.18,10.11h-1.22l2.16-10.11Zm.84-3.88-.43,2h-1.24l.43-2Z"/>
                <path class="cls-2"
                      d="M113.43,90.56a2.19,2.19,0,0,0,.64.79,2.65,2.65,0,0,0,.92.41,4.7,4.7,0,0,0,1.05.12,3.91,3.91,0,0,0,.87-.11,2.82,2.82,0,0,0,.82-.33,2.15,2.15,0,0,0,.62-.58,1.49,1.49,0,0,0,.24-.85,1.39,1.39,0,0,0-.24-.84,2.7,2.7,0,0,0-.63-.58,5.87,5.87,0,0,0-.87-.43l-1-.38c-.33-.13-.66-.27-1-.42a3.74,3.74,0,0,1-.88-.55,2.62,2.62,0,0,1-.61-.76,2.23,2.23,0,0,1-.24-1.07,2.26,2.26,0,0,1,.35-1.27,3,3,0,0,1,.91-.85,4.33,4.33,0,0,1,1.21-.49,5.86,5.86,0,0,1,1.28-.15,5.57,5.57,0,0,1,1.46.17,3,3,0,0,1,1.15.57,2.65,2.65,0,0,1,.75,1,3.75,3.75,0,0,1,.24,1.5h-1.23a2.21,2.21,0,0,0-.14-1,1.83,1.83,0,0,0-.5-.69,2.17,2.17,0,0,0-.77-.4,3.77,3.77,0,0,0-1-.13,5.19,5.19,0,0,0-.86.08,2.61,2.61,0,0,0-.8.27,1.6,1.6,0,0,0-.61.52,1.43,1.43,0,0,0-.24.86,1.24,1.24,0,0,0,.17.63,2.17,2.17,0,0,0,.47.49,4.34,4.34,0,0,0,.68.39l.81.35,1.11.44a5.08,5.08,0,0,1,1.06.56,3,3,0,0,1,.8.8,2,2,0,0,1,.33,1.18,2.74,2.74,0,0,1-.37,1.45,2.88,2.88,0,0,1-.95,1,4.33,4.33,0,0,1-1.31.52,7.16,7.16,0,0,1-1.45.16,5.27,5.27,0,0,1-1.44-.2,3.34,3.34,0,0,1-1.23-.63,3,3,0,0,1-.84-1.1,3.5,3.5,0,0,1-.27-1.64h1.21A2.61,2.61,0,0,0,113.43,90.56Z"/>
                <path class="cls-2"
                      d="M123.88,88.68a4.4,4.4,0,0,0,.18,1.28,2.89,2.89,0,0,0,.54,1,2.5,2.5,0,0,0,.92.66,3.11,3.11,0,0,0,1.3.25,3.28,3.28,0,0,0,2.1-.7,3.69,3.69,0,0,0,1.21-1.81h1.24A5,5,0,0,1,129.72,92a4.57,4.57,0,0,1-3,.91,3.94,3.94,0,0,1-3.06-1.14,4.45,4.45,0,0,1-1-3.14,7.85,7.85,0,0,1,.36-2.36,6.57,6.57,0,0,1,1.07-2.05,5.48,5.48,0,0,1,1.72-1.45,4.87,4.87,0,0,1,2.32-.54,4.3,4.3,0,0,1,1.62.28,3.6,3.6,0,0,1,1.21.8,3.42,3.42,0,0,1,.75,1.25,4.79,4.79,0,0,1,.26,1.6c0,.29,0,.58,0,.87s0,.58-.08.88h-7.92A4.58,4.58,0,0,0,123.88,88.68Zm6.83-2.22c0-.13,0-.25,0-.38A2.84,2.84,0,0,0,130,84a2.69,2.69,0,0,0-2-.77,3.09,3.09,0,0,0-1.4.31,4,4,0,0,0-1.14.8,4.57,4.57,0,0,0-.83,1.15,5.46,5.46,0,0,0-.49,1.35h6.6C130.7,86.72,130.7,86.58,130.71,86.46Z"/>
                <path class="cls-2" d="M137.56,78.63l-3,14h-1.21l3-14Z"/>
                <path class="cls-2"
                      d="M154.88,81.17a2.41,2.41,0,0,0-.72-1,2.65,2.65,0,0,0-1.16-.54,6.74,6.74,0,0,0-1.58-.16,5.18,5.18,0,0,0-1.29.16,3.44,3.44,0,0,0-1.14.5,2.76,2.76,0,0,0-.83.87,2.44,2.44,0,0,0-.31,1.27,1.88,1.88,0,0,0,.21.93,2.07,2.07,0,0,0,.52.65,2.68,2.68,0,0,0,.76.43l.86.31,1.49.45c.48.14.95.3,1.4.47a5,5,0,0,1,1.21.64,3,3,0,0,1,.84,1,3.13,3.13,0,0,1,.31,1.47,4.65,4.65,0,0,1-.2,1.27,3.6,3.6,0,0,1-.8,1.41,4.73,4.73,0,0,1-1.64,1.15,7,7,0,0,1-2.77.47,7.78,7.78,0,0,1-2.16-.29,4.63,4.63,0,0,1-1.71-.88,3.81,3.81,0,0,1-1.08-1.52,5.11,5.11,0,0,1-.32-2.19h1.34a4.21,4.21,0,0,0,.2,1.73,2.74,2.74,0,0,0,.81,1.17,3.17,3.17,0,0,0,1.31.65,6.51,6.51,0,0,0,1.71.21,5.58,5.58,0,0,0,1.39-.18,4.35,4.35,0,0,0,1.29-.54,3,3,0,0,0,.94-.93,2.47,2.47,0,0,0,.36-1.35,2.11,2.11,0,0,0-.32-1.21,2.76,2.76,0,0,0-.84-.75,5,5,0,0,0-1.11-.47l-1.2-.35-1.37-.41a4.51,4.51,0,0,1-2-1.13,2.91,2.91,0,0,1-.76-2.13,3.52,3.52,0,0,1,1.54-3,5.29,5.29,0,0,1,1.58-.71,7.09,7.09,0,0,1,1.84-.24,8.48,8.48,0,0,1,2,.23,4.31,4.31,0,0,1,1.62.74,3.49,3.49,0,0,1,1,1.36,4.39,4.39,0,0,1,.31,2h-1.33A4.24,4.24,0,0,0,154.88,81.17Z"/>
                <path class="cls-2"
                      d="M159.6,84a3.35,3.35,0,0,1,1-1,4,4,0,0,1,1.29-.6,5.94,5.94,0,0,1,1.53-.19,7.89,7.89,0,0,1,1.13.09,4.41,4.41,0,0,1,1.15.36,2.57,2.57,0,0,1,.88.68,1.74,1.74,0,0,1,.35,1.12,5,5,0,0,1-.07.82c0,.3-.1.61-.17.91s-.13.61-.2.9-.14.56-.19.78c-.11.56-.22,1-.3,1.4s-.15.68-.21.93-.09.45-.11.61a2.49,2.49,0,0,0,0,.47.31.31,0,0,0,.21.34,1.33,1.33,0,0,0,.43.07h.25l.24,0-.17,1a4.9,4.9,0,0,1-1,.1c-.7,0-1.05-.36-1.08-1.08a2.44,2.44,0,0,1,0-.27l0-.28,0,0A3.53,3.53,0,0,1,163,92.42a4.45,4.45,0,0,1-2,.48,5.18,5.18,0,0,1-1.29-.16,2.88,2.88,0,0,1-1-.49,2.41,2.41,0,0,1-.67-.86,3.11,3.11,0,0,1-.24-1.28,2.93,2.93,0,0,1,.28-1.35,2.43,2.43,0,0,1,.78-.9,4,4,0,0,1,1.11-.56,9.09,9.09,0,0,1,1.32-.32,10,10,0,0,1,1.81-.15,4.88,4.88,0,0,0,1.4-.15,1.53,1.53,0,0,0,.91-.57,2.45,2.45,0,0,0,.31-1.41,1.19,1.19,0,0,0-.21-.73,1.43,1.43,0,0,0-.51-.44,2.07,2.07,0,0,0-.69-.22,4.68,4.68,0,0,0-.73-.06,5.06,5.06,0,0,0-1.12.12,3.38,3.38,0,0,0-1,.38,2.19,2.19,0,0,0-.71.71,2.77,2.77,0,0,0-.39,1.07H159.1A3.75,3.75,0,0,1,159.6,84Zm5.57,3.13a1,1,0,0,1-.44.29,3.65,3.65,0,0,1-.59.16,4.66,4.66,0,0,1-.64.08l-.56,0-1.26.11a5.44,5.44,0,0,0-1.31.29,2.75,2.75,0,0,0-1,.67,1.77,1.77,0,0,0-.41,1.24,1.68,1.68,0,0,0,.19.84,1.61,1.61,0,0,0,.5.57,2.14,2.14,0,0,0,.72.32,4,4,0,0,0,.85.1,3.53,3.53,0,0,0,2.41-.81,3.8,3.8,0,0,0,1.21-2.15l.39-1.71Z"/>
                <path class="cls-2"
                      d="M177,93.84a4.78,4.78,0,0,1-1,1.57,3.62,3.62,0,0,1-1.42.93,6.57,6.57,0,0,1-3.49.12,3.5,3.5,0,0,1-1.22-.56,2.61,2.61,0,0,1-.84-1,3.59,3.59,0,0,1-.34-1.52h1.22a2.14,2.14,0,0,0,.24,1.07,2,2,0,0,0,.64.69,2.58,2.58,0,0,0,.9.36,5.22,5.22,0,0,0,1.06.11,3.46,3.46,0,0,0,1.35-.25,3.23,3.23,0,0,0,1-.67,3.79,3.79,0,0,0,.67-1,9.2,9.2,0,0,0,.44-1.09,8.78,8.78,0,0,0,.29-1.09c.08-.36.16-.68.24-1l0,0a3.35,3.35,0,0,1-1.47,1.39,4.38,4.38,0,0,1-2,.48,3.92,3.92,0,0,1-1.61-.32,3.21,3.21,0,0,1-1.17-.87,3.75,3.75,0,0,1-.72-1.3,5.31,5.31,0,0,1-.24-1.63,6.93,6.93,0,0,1,.35-2.2,6,6,0,0,1,1-2,5.12,5.12,0,0,1,1.63-1.4,4.41,4.41,0,0,1,2.17-.52,4.25,4.25,0,0,1,1.12.14,4,4,0,0,1,1,.44,2.89,2.89,0,0,1,.77.75,2.4,2.4,0,0,1,.41,1h0l.43-2.08h1.14l-1.92,9A13,13,0,0,1,177,93.84Zm-6.11-4.43a2.81,2.81,0,0,0,.5,1,2.49,2.49,0,0,0,.85.69,2.71,2.71,0,0,0,1.22.26,3.21,3.21,0,0,0,1.68-.46,4.56,4.56,0,0,0,1.28-1.2,5.5,5.5,0,0,0,.8-1.63,5.93,5.93,0,0,0,.27-1.73,5.26,5.26,0,0,0-.14-1.23,2.57,2.57,0,0,0-.48-1,2.29,2.29,0,0,0-.87-.65,3,3,0,0,0-1.27-.24,3.21,3.21,0,0,0-1.69.45,4.52,4.52,0,0,0-1.26,1.17,5.12,5.12,0,0,0-.78,1.59,5.83,5.83,0,0,0-.27,1.73A4.39,4.39,0,0,0,170.84,89.41Zm4.58-9.31a2.24,2.24,0,0,0,2.32-1.67h.72a2.88,2.88,0,0,1-1.06,1.85,3.09,3.09,0,0,1-2,.7,2.4,2.4,0,0,1-1.84-.71,2.43,2.43,0,0,1-.61-1.84h.74A1.56,1.56,0,0,0,175.42,80.1Z"/>
                <path class="cls-2" d="M185,78.63l-3,14h-1.21l3-14Z"/>
                <path class="cls-2" d="M187.48,82.51h1.23l-2.17,10.11h-1.22Z"/>
                <path class="cls-2"
                      d="M194.12,78.63l-1.88,8.78,0,0,5.92-4.94h1.64l-4.78,3.9,3.06,6.21h-1.35l-2.69-5.47L191.93,89l-.79,3.66h-1.21l3-14Z"/>
                <path class="cls-2"
                      d="M216.92,81.17a2.31,2.31,0,0,0-.71-1,2.71,2.71,0,0,0-1.16-.54,6.89,6.89,0,0,0-1.59-.16,5,5,0,0,0-1.28.16,3.41,3.41,0,0,0-1.15.5,2.73,2.73,0,0,0-.82.87,2.44,2.44,0,0,0-.31,1.27,2,2,0,0,0,.2.93,2.26,2.26,0,0,0,.53.65,2.68,2.68,0,0,0,.76.43l.86.31,1.49.45c.48.14.95.3,1.4.47a4.9,4.9,0,0,1,1.2.64,3,3,0,0,1,.85,1,3.13,3.13,0,0,1,.31,1.47,4.71,4.71,0,0,1-.21,1.27,3.57,3.57,0,0,1-.79,1.41,4.73,4.73,0,0,1-1.64,1.15,7,7,0,0,1-2.77.47,7.78,7.78,0,0,1-2.16-.29,4.63,4.63,0,0,1-1.71-.88,3.83,3.83,0,0,1-1.09-1.52,5.28,5.28,0,0,1-.31-2.19h1.33a4.2,4.2,0,0,0,.21,1.73,2.72,2.72,0,0,0,.8,1.17,3.29,3.29,0,0,0,1.31.65,6.59,6.59,0,0,0,1.72.21,5.58,5.58,0,0,0,1.39-.18,4.35,4.35,0,0,0,1.29-.54,3.09,3.09,0,0,0,.94-.93,2.47,2.47,0,0,0,.36-1.35,2,2,0,0,0-.33-1.21,2.61,2.61,0,0,0-.83-.75,4.89,4.89,0,0,0-1.12-.47L212.7,86l-1.37-.41a4.45,4.45,0,0,1-2-1.13,2.91,2.91,0,0,1-.77-2.13,3.57,3.57,0,0,1,.43-1.81,3.78,3.78,0,0,1,1.11-1.24,5.47,5.47,0,0,1,1.59-.71,7,7,0,0,1,1.83-.24,8.57,8.57,0,0,1,2,.23,4.31,4.31,0,0,1,1.62.74,3.49,3.49,0,0,1,1.05,1.36,4.53,4.53,0,0,1,.31,2h-1.33A4,4,0,0,0,216.92,81.17Z"/>
                <path class="cls-2" d="M223.12,82.51,221,92.62h-1.22l2.16-10.11Zm.85-3.88-.43,2H222.3l.43-2Z"/>
                <path class="cls-2"
                      d="M226,90.56a2.09,2.09,0,0,0,.64.79,2.65,2.65,0,0,0,.92.41,4.7,4.7,0,0,0,1.05.12,3.76,3.76,0,0,0,.86-.11,2.77,2.77,0,0,0,.83-.33,2,2,0,0,0,.61-.58,1.42,1.42,0,0,0,.25-.85,1.33,1.33,0,0,0-.25-.84,2.47,2.47,0,0,0-.62-.58,5.87,5.87,0,0,0-.87-.43l-1-.38c-.33-.13-.66-.27-1-.42a3.74,3.74,0,0,1-.88-.55,2.62,2.62,0,0,1-.61-.76,2.23,2.23,0,0,1-.24-1.07,2.26,2.26,0,0,1,.35-1.27,3,3,0,0,1,.91-.85,4.33,4.33,0,0,1,1.21-.49,5.77,5.77,0,0,1,1.27-.15,5.6,5.6,0,0,1,1.47.17,3,3,0,0,1,1.15.57,2.65,2.65,0,0,1,.75,1,3.75,3.75,0,0,1,.24,1.5h-1.23a2.21,2.21,0,0,0-.14-1,2,2,0,0,0-.5-.69,2.17,2.17,0,0,0-.77-.4,3.85,3.85,0,0,0-1-.13,5.18,5.18,0,0,0-.85.08,2.61,2.61,0,0,0-.8.27,1.6,1.6,0,0,0-.61.52A1.43,1.43,0,0,0,227,85a1.24,1.24,0,0,0,.17.63,2.17,2.17,0,0,0,.47.49,4.34,4.34,0,0,0,.68.39l.81.35,1.11.44a5.34,5.34,0,0,1,1.06.56,3,3,0,0,1,.8.8,2,2,0,0,1,.32,1.18,2.74,2.74,0,0,1-.36,1.45,2.88,2.88,0,0,1-.95,1,4.33,4.33,0,0,1-1.31.52,7.16,7.16,0,0,1-1.45.16,5.27,5.27,0,0,1-1.44-.2,3.34,3.34,0,0,1-1.23-.63,3,3,0,0,1-.84-1.1,3.5,3.5,0,0,1-.27-1.64h1.21A2.61,2.61,0,0,0,226,90.56Z"/>
                <path class="cls-2"
                      d="M237.61,82.51l.64-3.06h1.24l-.65,3.06h2l-.2,1h-2L237.22,90c-.06.24-.09.42-.11.54a2.77,2.77,0,0,0,0,.42.81.81,0,0,0,.15.49.54.54,0,0,0,.5.22,9,9,0,0,0,1.45-.12L239,92.64q-.32,0-.63.06l-.62,0a5.09,5.09,0,0,1-.69,0,1.53,1.53,0,0,1-.6-.21A1.19,1.19,0,0,1,236,92a1.55,1.55,0,0,1-.16-.73,4,4,0,0,1,0-.43,5.29,5.29,0,0,1,.11-.61l1.39-6.7h-1.82l.24-1Z"/>
                <path class="cls-2"
                      d="M243.23,88.68a4.4,4.4,0,0,0,.18,1.28,2.89,2.89,0,0,0,.54,1,2.5,2.5,0,0,0,.92.66,3.11,3.11,0,0,0,1.3.25,3.28,3.28,0,0,0,2.1-.7,3.69,3.69,0,0,0,1.21-1.81h1.24A5,5,0,0,1,249.07,92a4.55,4.55,0,0,1-3,.91,3.94,3.94,0,0,1-3.06-1.14A4.45,4.45,0,0,1,242,88.62a7.85,7.85,0,0,1,.36-2.36,6.57,6.57,0,0,1,1.07-2.05,5.48,5.48,0,0,1,1.72-1.45,4.87,4.87,0,0,1,2.32-.54,4.3,4.3,0,0,1,1.62.28,3.6,3.6,0,0,1,1.21.8,3.42,3.42,0,0,1,.75,1.25,4.79,4.79,0,0,1,.26,1.6c0,.29,0,.58,0,.87s0,.58-.08.88h-7.92A4.58,4.58,0,0,0,243.23,88.68Zm6.83-2.22c0-.13,0-.25,0-.38a2.84,2.84,0,0,0-.73-2.06,2.69,2.69,0,0,0-2-.77,3.09,3.09,0,0,0-1.4.31,4,4,0,0,0-1.14.8,4.57,4.57,0,0,0-.83,1.15,5.46,5.46,0,0,0-.49,1.35h6.6C250.05,86.72,250.06,86.58,250.06,86.46Z"/>
                <path class="cls-2"
                      d="M256,82.51l-.39,1.76,0,0a4.71,4.71,0,0,1,1.49-1.49,3.76,3.76,0,0,1,2.07-.6,2.57,2.57,0,0,1,1.71.53,2.26,2.26,0,0,1,.74,1.62h0a5.28,5.28,0,0,1,1.5-1.55,3.65,3.65,0,0,1,2.05-.6,2.74,2.74,0,0,1,2.14.74,2.8,2.8,0,0,1,.66,1.92,3.6,3.6,0,0,1,0,.56c0,.19-.06.39-.09.6l-1.42,6.58h-1.23L266.67,86a4.71,4.71,0,0,0,.12-1,1.78,1.78,0,0,0-.46-1.24,2,2,0,0,0-1.46-.49,2.57,2.57,0,0,0-1.4.38,3.41,3.41,0,0,0-1,1,6.28,6.28,0,0,0-.74,1.49c-.19.57-.36,1.18-.51,1.84l-1,4.66H259L260.36,86a4.3,4.3,0,0,0,.12-1,2.12,2.12,0,0,0-.4-1.28,1.56,1.56,0,0,0-1.31-.53,2.52,2.52,0,0,0-1.27.34,3.89,3.89,0,0,0-1.1.9,5.91,5.91,0,0,0-.85,1.34,8.1,8.1,0,0,0-.56,1.66l-1.1,5.13h-1.21l2.15-10.11Z"/>
                <path class="cls-2" d="M273.37,82.51,271.2,92.62H270l2.16-10.11Zm.85-3.88-.43,2h-1.24l.43-2Z"/>
            </g>
            <path class="cls-3"
                  d="M63.67,34.63s-3.29-19.8-40.31,10.08c0,0-1.47-20.53,18.7-27,0,0,17-13.28,25.29-3C71.94,20.43,63.67,34.63,63.67,34.63Z"/>
            <path class="cls-4"
                  d="M42.06,17.75S28.24,25.21,27,36.28C25.69,48.4,32.34,60.11,43.65,73.1c0,0-15.72-3.06-26.44-15.51C3.93,42.16,7.35,27.23,11.53,21.87,18.67,12.74,32.53,9,42.06,17.75Z"/>
            <path class="cls-2"
                  d="M86.34,49.94c1.3-.1,2.59-.24,3.87-.44s2.53-.42,3.77-.72a30.5,30.5,0,0,0,7-2.49A13.07,13.07,0,0,0,106.06,42a9.91,9.91,0,0,0,1.23-2.81,4.31,4.31,0,0,0-.06-2.44,4.45,4.45,0,0,0-3.68-2.58,9.14,9.14,0,0,0-5.58.94,11.61,11.61,0,0,0-1.26.75c-.45.32-.92.67-1.37,1a25.2,25.2,0,0,0-2.53,2.32,26.47,26.47,0,0,0-4.09,5.5A26,26,0,0,0,86.14,51a25.47,25.47,0,0,0-.89,6.79c0,.29,0,.58,0,.87s0,.62,0,.8a5.84,5.84,0,0,0,.22,1.23,4.59,4.59,0,0,0,1.16,2,7.94,7.94,0,0,0,5.23,1.89,20.36,20.36,0,0,0,6.77-1,35.81,35.81,0,0,0,6.71-3,55.41,55.41,0,0,0,6.32-4.2c1-.77,2-1.58,3-2.43s2-1.7,2.92-2.58A47.67,47.67,0,0,1,113,57.73a42.69,42.69,0,0,1-5.74,5.58,33.93,33.93,0,0,1-7,4.36A23.16,23.16,0,0,1,92,69.87a15.64,15.64,0,0,1-4.67-.42,11.78,11.78,0,0,1-4.57-2.31,10.37,10.37,0,0,1-3.09-4.42A11.93,11.93,0,0,1,79,60.16c-.06-.46-.08-.76-.11-1.13s-.05-.72-.07-1.08a30.69,30.69,0,0,1,.83-8.59,31.56,31.56,0,0,1,8.41-14.89,32.62,32.62,0,0,1,3.28-2.83c.59-.43,1.17-.84,1.8-1.24a17.89,17.89,0,0,1,2.12-1.13,14.86,14.86,0,0,1,9.57-.94,11.39,11.39,0,0,1,4.61,2.33,8.87,8.87,0,0,1,2.89,4.71,9.29,9.29,0,0,1-.42,5.22,13.68,13.68,0,0,1-2.37,4,16,16,0,0,1-7.32,4.7,27.67,27.67,0,0,1-8,1.3A34.46,34.46,0,0,1,86.34,49.94Z"/>
            <path class="cls-2"
                  d="M0,52.77c3.88-.25,7.83-.45,11.66-.63a1.48,1.48,0,0,0,.88-.34.86.86,0,0,0,.13-.14l.12-.2.32-.6,1.31-2.41,2.7-4.85a3.06,3.06,0,0,1,1.82-1.24,4,4,0,0,1,2.14,0,2.62,2.62,0,0,1,1.62,1.33l.56,1.18,2.2,4.72L26,50.79l.26.58a.34.34,0,0,0,.12.12.91.91,0,0,0,.56.14l1.47,0,5.87-.07a1.19,1.19,0,0,1,1.09.58l0,0L38.52,58l-2.71.49q6.34-23.83,13.74-47.64l1.93-5.94L52,3.44l.25-.74.12-.38a2.7,2.7,0,0,1,.24-.55,3,3,0,0,1,.5-.62A4.64,4.64,0,0,1,55.83,0a4.23,4.23,0,0,1,2.55.54,2.09,2.09,0,0,1,.88,1.05,1.91,1.91,0,0,1,.11.66v.25l-.07.75-1.14,12-2.66,24-3.08,24-1.7,12-.22,1.49-.11.75s0,0,0,0,.06.09.26.11a.81.81,0,0,0,.45-.07c-.15.42.45-1.09.81-2l1.2-2.94,5-11.78,2.59-5.89.33-.73A3.38,3.38,0,0,1,61.64,53a4,4,0,0,1,2.44-1.22l.59,0,.42,0,.83,0,.83,0h.73a4.24,4.24,0,0,0,1.34-.26,3.73,3.73,0,0,0,.64-.3,2,2,0,0,0,.29-.19l.37-.26L73,48.73l1.47-1.07.74-.54c.25-.17.48-.35.81-.55a6.5,6.5,0,0,1,3.88-.91,4.49,4.49,0,0,1,1.67.46,4.33,4.33,0,0,1,1.15,1l1,1a12.84,12.84,0,0,0,.9,1,1.68,1.68,0,0,0,1.24.51l1.66.06,3.34.11-3.41.12-1.7.06a2.22,2.22,0,0,1-1.57-.48,12.18,12.18,0,0,1-1-1l-1-.93A4.15,4.15,0,0,0,81,46.84a4,4,0,0,0-1.4-.28,5.17,5.17,0,0,0-2.95.84c-.19.13-.43.33-.67.52l-.71.56-1.42,1.13-2.8,2.26-.35.28-.44.33a6.52,6.52,0,0,1-1,.54,7,7,0,0,1-2,.59l-.52,0-.43,0-.84,0-.83,0h-.42l-.25,0a1.13,1.13,0,0,0-.66.33c0-.06-.27.63-.47,1.09L60.4,61.11,55.65,72.94l-1.16,3-.58,1.48-.15.37-.11.26a3.7,3.7,0,0,1-.17.35,3.74,3.74,0,0,1-1.11,1.2,4,4,0,0,1-2.54.71,2.55,2.55,0,0,1-2.09-1.21,2.53,2.53,0,0,1-.28-1.42l.08-.75.16-1.5,1.25-12,2.35-24,2.15-23.95,1-12,.06-.74V2.66s0,0,0,0a1.11,1.11,0,0,0,.05.3,1,1,0,0,0,.4.47,1.2,1.2,0,0,0,.72.18,1.69,1.69,0,0,0,1-.44,1.54,1.54,0,0,0,.23-.29A.48.48,0,0,0,57,2.7l-.13.37-.26.75-.52,1.49-2.06,6Q46,35.08,38.59,58.85l0,0A1.65,1.65,0,0,1,36.82,60a1.18,1.18,0,0,1-.93-.64l-3-6L34,54l-5.81-.07-1.45,0a3.34,3.34,0,0,1-2.06-.69,2.37,2.37,0,0,1-.7-.89l-.25-.61-.5-1.2-2-4.81-.52-1.2a.64.64,0,0,0-.43-.38,1.34,1.34,0,0,0-1.41.28l-2.91,4.67-1.44,2.36-.35.59a3.3,3.3,0,0,1-.26.37,3.06,3.06,0,0,1-.36.36,3.16,3.16,0,0,1-1.82.63C7.73,53.23,3.9,53,0,52.77Z"/>
            <path class="cls-5"
                  d="M46.82,44.9c6.86-6.56,9.26-8.78,16.56-18.25C70,18,65.75,13.07,65.75,13.07s10,6.53,4.79,28.14c-2.34,9.67-10.78,18.25-17.47,24-6.22,5.32-6,9.41-6,9.41S44,73,42,68.14C39,60.7,40.89,50.57,46.82,44.9Z"/>
            <path class="cls-6"
                  d="M134.61,51q2-2.85,4.17-5.53c1.44-1.81,2.89-3.58,4.39-5.32s3-3.45,4.54-5.15,3.1-3.37,4.67-5a3.08,3.08,0,0,1,5.08,3.26l-.1.23c-1.15,2.88-2.36,5.73-3.6,8.56s-2.6,5.61-4.08,8.34-3.05,5.41-4.61,8.09c-.79,1.35-1.58,2.69-2.33,4l-1.14,2-1.09,2.06-2.4-1.12c2.59-4.58,5.16-9,7.83-13.54,1.34-2.24,2.68-4.49,4.12-6.69s2.93-4.4,4.59-6.52a41.6,41.6,0,0,1,5.61-6A21.44,21.44,0,0,1,168,28.29a15.86,15.86,0,0,1,2.41-.51c.42-.06.85-.09,1.27-.11a8.88,8.88,0,0,1,1.51.06,6.67,6.67,0,0,1,1.85.5,5.65,5.65,0,0,1,2,1.39,5.9,5.9,0,0,1,1.21,2.07,7,7,0,0,1,.37,1.86,11.78,11.78,0,0,1-.19,2.84,21.79,21.79,0,0,1-.55,2.28c-.44,1.43-.94,2.72-1.45,4-1,2.51-2.15,4.89-3.26,7.19s-2.2,4.57-3.09,6.74a22.07,22.07,0,0,0-1,3,6.53,6.53,0,0,0-.2,1.12c0,.27,0,.34-.1.13s-.49-.45-.5-.4.22.13.6.15a11.6,11.6,0,0,0,2.9-.19,18.31,18.31,0,0,0,6-2.49,39,39,0,0,0,5.74-4.39,87.19,87.19,0,0,0,10.19-11.31h0a.36.36,0,0,1,.52-.07.37.37,0,0,1,.13.41,47.82,47.82,0,0,1-3.18,7.26,52.31,52.31,0,0,1-4.31,6.78,36.68,36.68,0,0,1-5.69,6A22.81,22.81,0,0,1,173.41,67a16.54,16.54,0,0,1-4.76.79,8.7,8.7,0,0,1-3.2-.51,6.5,6.5,0,0,1-1.87-1.07,6.61,6.61,0,0,1-1.49-1.81,7.83,7.83,0,0,1-.9-3.62,13.17,13.17,0,0,1,.24-2.72,28.08,28.08,0,0,1,1.26-4.33c.48-1.33,1-2.58,1.59-3.8s1.13-2.4,1.72-3.57c1.15-2.33,2.37-4.57,3.42-6.78.52-1.09,1-2.19,1.38-3.22.18-.51.35-1,.46-1.45a6.32,6.32,0,0,0,.18-1c0-.09,0-.11,0,0a1.36,1.36,0,0,0,.27.39,1.12,1.12,0,0,0,.41.27c.08,0,.07,0,0,0a1.68,1.68,0,0,0-.42-.05,4.87,4.87,0,0,0-.66,0,8.54,8.54,0,0,0-1.39.18,18.85,18.85,0,0,0-5.92,2.7A45.16,45.16,0,0,0,158,41.87a70.25,70.25,0,0,0-10,11.44,77.37,77.37,0,0,0-7.55,13.34,1.32,1.32,0,0,1-2.45-1l.06-.14.81-2.18.76-2.2c.52-1.46,1-2.94,1.48-4.42,1-2.95,1.93-5.91,3-8.82s2.25-5.77,3.55-8.58,2.63-5.6,4-8.37l5,3.5q-2.55,2.28-5.16,4.51c-1.75,1.48-3.51,2.94-5.3,4.37s-3.6,2.85-5.45,4.22-3.72,2.72-5.66,4a.38.38,0,0,1-.52-.11A.38.38,0,0,1,134.61,51Z"/>
            <path class="cls-6"
                  d="M259.33,11.62c-.95,2.81-5,10.58-6.07,13.33q-3.24,8.25-7,16.2c-1.29,2.64-2.63,5.26-4.05,7.83l-1,1.85c-.29.54-.54,1.09-.77,1.64a12.25,12.25,0,0,0-.88,3.3,7.94,7.94,0,0,0,.17,3,5.3,5.3,0,0,0,1.25,2.3,5.2,5.2,0,0,0,2.5,1.36,9.59,9.59,0,0,0,3.56.06,17.85,17.85,0,0,0,7.46-3.28,25.88,25.88,0,0,0,5.93-6.11A26.77,26.77,0,0,0,264,45.47a27.79,27.79,0,0,0,.83-4,15.72,15.72,0,0,0,.05-3.61,3.82,3.82,0,0,0-.78-2.13c-.1-.05-.13-.17-.25-.21a.63.63,0,0,1-.13-.11l-.19-.08c-.07,0-.11-.07-.2-.1l-.26-.07a2,2,0,0,0-.61-.13,3.43,3.43,0,0,0-.34-.06h-.46c-.31,0-.61,0-.92,0a10.2,10.2,0,0,0-1.83.08,12.73,12.73,0,0,0-1.84.26,15,15,0,0,0-1.84.45A28.88,28.88,0,0,0,248,39.15a52.72,52.72,0,0,0-6.78,5.32h0a.37.37,0,0,1-.53,0,.36.36,0,0,1-.08-.38,24.59,24.59,0,0,1,4.81-7.92,24,24,0,0,1,7.74-5.78l1.15-.52a12.05,12.05,0,0,1,1.2-.4,14.94,14.94,0,0,1,2.47-.64,15.73,15.73,0,0,1,2.55-.32l1.29-.05h.65l.75.06a9,9,0,0,1,1.55.26l.8.22a6.39,6.39,0,0,1,.81.35c.27.13.54.25.8.4l.76.55a6.65,6.65,0,0,1,1.33,1.32,10.37,10.37,0,0,1,1,1.54,10.4,10.4,0,0,1,.54,1.6,10.21,10.21,0,0,1,.28,3c-.21,3.78-1.76,6.69-3.33,9.4a66.38,66.38,0,0,1-5.45,7.43,59,59,0,0,1-6.25,6.6,37.08,37.08,0,0,1-3.65,2.89c-.63.46-1.33.85-2,1.27a22.56,22.56,0,0,1-2.21,1.07A13.56,13.56,0,0,1,243,67.5a11.22,11.22,0,0,1-2.89-.39,10.46,10.46,0,0,1-2.78-1.29A10.32,10.32,0,0,1,233.51,61a14.27,14.27,0,0,1-1-5.65,19.35,19.35,0,0,1,.86-5.32,22.34,22.34,0,0,1,.9-2.45l.25-.6.23-.5.47-1c1.24-2.67,2.56-5.31,3.92-7.91q4.17-7.8,8.9-15.29c1.58-2.5,6.2-10,7.91-12.41S260.3,8.81,259.33,11.62Z"/>
            <path class="cls-6"
                  d="M219.12,41.27a18.52,18.52,0,0,0-1.49-6.11,4,4,0,0,0-1.54-1.8,3.36,3.36,0,0,0-2-.22A14.24,14.24,0,0,0,208.86,35a24.76,24.76,0,0,0-4.71,3.49,34.82,34.82,0,0,0-4,4.49,52.16,52.16,0,0,0-3.28,5.14c-.26.45-.51.9-.75,1.36s-.49.9-.7,1.33a25.72,25.72,0,0,0-1.15,2.66,14.17,14.17,0,0,0-1,5.35c.09,1.71.67,3.12,2,3.73a4.61,4.61,0,0,0,2.5.27,9.82,9.82,0,0,0,2.82-.86,20.21,20.21,0,0,0,5.17-3.64,37.62,37.62,0,0,0,4.31-4.85,123,123,0,0,0,7.27-11c1.12-1.89,2.17-3.8,3.15-5.68.48-.94,1-1.88,1.31-2.78a12.65,12.65,0,0,0,.46-1.27l.08-.26c0-.08,0-.12,0-.18s0,0,0,0v.27a1.7,1.7,0,0,0,0,.21,2,2,0,0,0,0,.24,2.6,2.6,0,0,0,.28.74l5.65.06c-2.18,4.43-4.25,9.05-6,13.64-.88,2.29-1.7,4.6-2.39,6.85-.33,1.13-.63,2.24-.86,3.31a15,15,0,0,0-.35,2.82,2.51,2.51,0,0,0,0,.44c0,.06,0,.11,0,.13V61s0-.06-.13-.17a1.24,1.24,0,0,0-.4-.3.89.89,0,0,0-.19-.07.19.19,0,0,0-.1,0s0,0,0,0a.41.41,0,0,0,.16,0l.67,0,.69,0a16,16,0,0,0,5.92-1.81,41.31,41.31,0,0,0,6-3.81c2-1.48,3.92-3.11,5.86-4.82v0a.39.39,0,0,1,.54,0,.38.38,0,0,1,.07.37,29.49,29.49,0,0,1-3.64,7.11,28.6,28.6,0,0,1-5.54,6.14,19.43,19.43,0,0,1-8.06,4.05,16.41,16.41,0,0,1-2.45.32,7.18,7.18,0,0,1-3.81-.84,6.34,6.34,0,0,1-1.83-1.54,7.08,7.08,0,0,1-1.06-1.83,9.68,9.68,0,0,1-.64-3.11,18.48,18.48,0,0,1,.43-4.76,33.17,33.17,0,0,1,1.09-4.07,67.21,67.21,0,0,1,3-7.45c1.1-2.39,2.29-4.71,3.51-7s2.48-4.53,3.86-6.8l.07-.13a3.21,3.21,0,0,1,4.4-1.08,3.36,3.36,0,0,1,1.19,1.27,3.6,3.6,0,0,1,.22.54,1.19,1.19,0,0,1,.08.3c0,.11,0,.23.06.34s0,.25,0,.31v.17l0,.35v.17l0,.11a7,7,0,0,1-.17.79c-.07.21-.13.44-.2.62l-.21.52a15.34,15.34,0,0,1-.9,1.77c-.63,1.08-1.29,2-2,3-1.37,1.88-2.8,3.65-4.29,5.35-3,3.43-6,6.67-9,10-1.5,1.69-3.06,3.34-4.73,4.89a32.27,32.27,0,0,1-5.52,4.23,14.56,14.56,0,0,1-3.38,1.49,8.41,8.41,0,0,1-4.08.2,7.07,7.07,0,0,1-3.84-2.35,9.72,9.72,0,0,1-1.92-3.84c-1.35-5.36.36-10.58,2.52-14.7a34.84,34.84,0,0,1,9.09-11.17,26,26,0,0,1,6.42-3.73,16.75,16.75,0,0,1,7.6-1.25,10,10,0,0,1,2.14.44,5.74,5.74,0,0,1,2.08,1.29,7.09,7.09,0,0,1,1.94,3.76,13.28,13.28,0,0,1,.15,3.65,17.21,17.21,0,0,1-.65,3.42.38.38,0,0,1-.47.25.35.35,0,0,1-.26-.32Z"/>
            <path class="cls-6"
                  d="M272.4,52.18a70.3,70.3,0,0,1,3-6.51q1.65-3.16,3.46-6.19c1.19-2,2.45-4,3.74-6s2.61-3.89,4-5.76a3.85,3.85,0,0,1,6.58,3.9l0,0c-2.26,5-5.12,9.65-7.67,14.48l-3.8,7.24L279.83,57l-.47.91c-.11.23-.24.43-.32.65a4.69,4.69,0,0,0-.4,1.31,2.92,2.92,0,0,0,.43,2.18,2,2,0,0,0,.8.63,3.73,3.73,0,0,0,1.29.27,8.93,8.93,0,0,0,3.29-.65,21.37,21.37,0,0,0,3.37-1.71A60.72,60.72,0,0,0,299.74,50h0a.37.37,0,0,1,.58.46A56.79,56.79,0,0,1,289.48,63a24,24,0,0,1-3.65,2.41,11.86,11.86,0,0,1-4.54,1.41,7.65,7.65,0,0,1-2.73-.27,6.26,6.26,0,0,1-4.16-4.11,7.86,7.86,0,0,1-.41-2.81,9.74,9.74,0,0,1,.45-2.65,10.08,10.08,0,0,1,.47-1.23l.39-.94L276.87,51,280,43.5c2.07-5,3.83-10.16,6.2-15l6.56,3.93c-1.44,1.85-2.95,3.64-4.49,5.41s-3.13,3.5-4.77,5.19-3.31,3.36-5.05,5-3.54,3.19-5.48,4.66a.38.38,0,0,1-.53-.08A.36.36,0,0,1,272.4,52.18Z"/>
            <path class="cls-6"
                  d="M305.64,39.63a7.38,7.38,0,0,1,1.85-2.79,12.9,12.9,0,0,1,2.65-2,19.35,19.35,0,0,1,6.17-2.17,14.54,14.54,0,0,1,1.59-.24l1.55-.16c.87-.05,1.73-.19,2.58-.3s1.7-.31,2.54-.48l1.25-.27,1.11-.25.76-.17a3.09,3.09,0,0,1,2.73,5.32c-2.61,2.33-5.66,4.23-8.41,6.42A45,45,0,0,0,314.66,50c-2.19,2.72-4.06,5.75-6.12,8.6s-4.36,5.47-6.58,8.17l-4.31-5.83c.76-.42,1.42-.76,2.13-1.12s1.42-.66,2.15-1a30.36,30.36,0,0,1,4.58-1.52,19.86,19.86,0,0,1,5.27-.57,10.94,10.94,0,0,1,3.05.55,22,22,0,0,1,2.28.87c2.69,1.17,4.36,1.91,6.59,1.52a11.51,11.51,0,0,0,3.49-1.38,38.41,38.41,0,0,0,3.58-2.43h0a.39.39,0,0,1,.54.09.4.4,0,0,1,.05.35,16.83,16.83,0,0,1-2.16,4.16,12.17,12.17,0,0,1-3.72,3.5A11,11,0,0,1,320,65.41a22.17,22.17,0,0,1-5-.68,9.54,9.54,0,0,0-3.19-.41,22.21,22.21,0,0,0-3.37.69c-1.21.34-2.48.72-3.75,1.15-.64.21-1.28.44-1.91.66s-1.31.48-1.85.7l-.54.21a3.62,3.62,0,0,1-3.77-6c2.58-2.35,5.07-4.79,7.83-7s5.67-4.22,8.29-6.54a45.32,45.32,0,0,0,7.06-7.71c2.05-2.86,3.81-6,6-8.73l3.49,5.15-.89.37-.79.29c-.53.17-1.07.33-1.6.45a22.42,22.42,0,0,1-3.24.48,24,24,0,0,1-3.28.06l-1.38-.08c-.45,0-.89-.06-1.34-.07a33.51,33.51,0,0,0-5.3.17,17.26,17.26,0,0,0-2.64.49,11.37,11.37,0,0,0-2.59,1l-.08.05a.37.37,0,0,1-.53-.46Z"/>
            <path class="cls-6"
                  d="M115.65,48.12a7.27,7.27,0,0,1,1.94-1.35,8.36,8.36,0,0,1,1.94-.65,4.7,4.7,0,0,1,1.94,0c.65.15,1.3.33,1.94.42l1.94.3,1.94.37c1.3.27,2.59.53,3.88.89a.23.23,0,0,1,0,.44c-1.29.35-2.58.61-3.88.89l-1.94.36-1.94.3c-.64.1-1.29.27-1.94.42a4.53,4.53,0,0,1-1.94,0,8.36,8.36,0,0,1-1.94-.65,7.22,7.22,0,0,1-1.94-1.34.31.31,0,0,1,0-.44Z"/>
        </g>
    </g>
</svg>