<svg xmlns="http://www.w3.org/2000/svg" xmlns:xlink="http://www.w3.org/1999/xlink" viewBox="0 0 345.82 89.23"><defs><style>.cls-1{fill:#dadada;}.cls-2{fill:#94090d;}.cls-3{fill:#f6f6f6;}.cls-4{fill:#d40d12;}.cls-5{fill:#47b6b0;}.cls-6{fill:#b2b2b2;}.cls-7{fill:url(#linear-gradient);}.cls-8{fill:#fff;}</style><linearGradient id="linear-gradient" x1="57.82" y1="41.72" x2="-47.05" y2="-6.98" gradientUnits="userSpaceOnUse"><stop offset="0" stop-color="#47b6b0"/><stop offset="1" stop-color="#2e7c86"/></linearGradient></defs><title>mhrsLogo</title><g id="Layer_2" data-name="Layer 2"><g id="Layer_1-2" data-name="Layer 1"><path class="cls-1" d="M92,19.45V36.39c-.49,0-1,0-1.53,0a19.54,19.54,0,0,0-9.78,2.59V19.45Z"/><path class="cls-2" d="M92,10.3v9.14H80.66V10.3A10.28,10.28,0,0,0,70.38,0H81.67A10.3,10.3,0,0,1,92,10.3Z"/><path class="cls-3" d="M80.65,19.45V38.93l-.91.56a19.07,19.07,0,0,0-2.07-1.15,19.71,19.71,0,0,0-27.79,13A19.76,19.76,0,0,0,55.1,70l8.46,8.46H10.3A10.29,10.29,0,0,1,0,68.14V19.45Z"/><path class="cls-4" d="M80.66,10.3v9.14H0V10.3A10.3,10.3,0,0,1,10.3,0H70.38A10.28,10.28,0,0,1,80.66,10.3Z"/><path class="cls-5" d="M106.31,56.05a15.87,15.87,0,0,1-4.64,11.23l-21.91,22L69,78.44,57.81,67.28a15.89,15.89,0,0,1,21.93-23c.3-.26.59-.53.91-.76A15.77,15.77,0,0,1,92,40.23a15.88,15.88,0,0,1,14.35,15.82Z"/><rect class="cls-6" x="13.34" y="29.19" width="13.59" height="13.59" rx="2"/><rect class="cls-7" x="38.69" y="29.19" width="13.59" height="13.59" rx="2"/><path class="cls-6" d="M77.67,33v5.33A19.67,19.67,0,0,0,64.09,37V33a3.83,3.83,0,0,1,3.82-3.82h5.94A3.83,3.83,0,0,1,77.67,33Z"/><rect class="cls-6" x="13.34" y="51.1" width="13.59" height="13.59" rx="2"/><path class="cls-6" d="M50.91,63.77a3.8,3.8,0,0,1-2.46.92H42.51a3.83,3.83,0,0,1-3.82-3.83V54.92a3.83,3.83,0,0,1,3.82-3.82h5.94a3.65,3.65,0,0,1,1.43.29A19.86,19.86,0,0,0,50.91,63.77Z"/><path class="cls-8" d="M98.58,57.69a3.51,3.51,0,0,1-1,2.49L82.05,75.69a3.4,3.4,0,0,1-1.93,1,3.13,3.13,0,0,1-1.22,0,3.46,3.46,0,0,1-1.93-1l-7.39-7.41a3.5,3.5,0,0,1,0-5,3.47,3.47,0,0,1,2.48-1,3.5,3.5,0,0,1,2.49,1l5,5L92.58,55.21a3.52,3.52,0,0,1,6,2.48Z"/><path d="M139.12,38.45l0-14.42-7,12h-1.27l-7-11.94V38.45h-2.64V18.65h2.26l8,13.92,7.94-13.92h2.26l0,19.8Z"/><path d="M159.5,31.86H147.64a5,5,0,0,0,5.3,4.39,5.42,5.42,0,0,0,4.22-1.81l1.46,1.75a7.28,7.28,0,0,1-5.77,2.43c-4.71,0-7.85-3.19-7.85-7.66s3.11-7.64,7.33-7.64,7.22,3.11,7.22,7.72A7.83,7.83,0,0,1,159.5,31.86Zm-11.86-1.95H157a4.71,4.71,0,0,0-9.38,0Z"/><path d="M170.25,23.32V26a4.23,4.23,0,0,0-.6,0c-2.84,0-4.61,1.78-4.61,5.07v7.46H162.4v-15h2.53V26C165.87,24.22,167.69,23.32,170.25,23.32Z"/><path d="M178.36,31.47l-3,2.88v4.1h-2.65v-21h2.65V30.93l8-7.47h3.2l-6.15,6.2,6.75,8.79h-3.25Z"/><path d="M201.39,31.86H189.53a5,5,0,0,0,5.29,4.39A5.41,5.41,0,0,0,199,34.44l1.46,1.75a7.24,7.24,0,0,1-5.76,2.43c-4.71,0-7.86-3.19-7.86-7.66a7.26,7.26,0,0,1,7.34-7.64c4.21,0,7.22,3.11,7.22,7.72C201.44,31.27,201.41,31.61,201.39,31.86Zm-11.86-1.95h9.37a4.7,4.7,0,0,0-9.37,0Z"/><path d="M215,36.22v2.23H202.74V36.7l8.63-11H202.9V23.46h11.86v1.78l-8.63,11Z"/><path d="M217.21,18.82A1.77,1.77,0,0,1,219,17a1.73,1.73,0,0,1,1.79,1.72,1.8,1.8,0,0,1-3.59.06Zm.47,4.64h2.65v15h-2.65Z"/><path class="cls-5" d="M248.92,18.65v19.8h-5.46V30.73H236v7.72h-5.46V18.65H236v7.44h7.44V18.65Z"/><path class="cls-5" d="M266.9,32.15H256a3.46,3.46,0,0,0,3.67,2.46,4.73,4.73,0,0,0,3.44-1.33l2.76,2.94c-1.43,1.64-3.53,2.49-6.37,2.49-5.32,0-8.77-3.37-8.77-7.95s3.5-7.89,8.22-7.89c4.41,0,8,2.88,8,8C267,31.21,266.93,31.72,266.9,32.15ZM256,29.32h6.12a3.1,3.1,0,0,0-6.12,0Z"/><path class="cls-5" d="M275.37,33.08l-1.55,1.61v3.76h-5.23v-21h5.23v11l5.35-5.35h6.21l-6.21,6.56,6.73,8.77h-6.34Z"/><path class="cls-5" d="M286,18.57a2.92,2.92,0,0,1,3.2-2.86c1.93,0,3.2,1.16,3.2,2.77a3.22,3.22,0,0,1-6.4.09Zm.58,4.55h5.24V38.45h-5.24Z"/><path class="cls-5" d="M319.93,29.68v8.77h-5.24V30.56c0-2.21-.88-3.14-2.26-3.14s-2.62,1-2.62,3.42v7.61h-5.24V30.56c0-2.21-.86-3.14-2.26-3.14-1.55,0-2.65,1-2.65,3.42v7.61h-5.24V23.12h5v1.61a5.89,5.89,0,0,1,4.47-1.86,5.43,5.43,0,0,1,4.83,2.4,6.38,6.38,0,0,1,5.18-2.4C317.36,22.87,319.93,24.93,319.93,29.68Z"/><path class="cls-4" d="M128.7,58h-3v5.27h-5.46V43.47h8.83c5.26,0,8.57,2.8,8.57,7.33a6.59,6.59,0,0,1-3.78,6.25l4.17,6.23H132.2Zm.05-10.12h-3v5.79h3c2.27,0,3.4-1.07,3.4-2.88S131,47.89,128.75,47.89Z"/><path class="cls-4" d="M153.46,54.76v8.52h-4.88v-2c-.74,1.48-2.23,2.24-4.41,2.24-3.59,0-5.57-2.07-5.57-4.72,0-2.83,2-4.59,6.64-4.59h3c-.08-1.55-1.1-2.43-3.17-2.43A6.84,6.84,0,0,0,141,53.12l-1.77-3.65a12.32,12.32,0,0,1,6.59-1.78C150.68,47.69,153.46,49.89,153.46,54.76Zm-5.24,3.59V57H146c-1.68,0-2.29.63-2.29,1.56s.72,1.55,2,1.55A2.57,2.57,0,0,0,148.22,58.35Z"/><path class="cls-4" d="M171.85,54.51v8.77h-5.24v-7.9c0-2.2-.93-3.14-2.45-3.14-1.68,0-3,1.08-3,3.62v7.42h-5.24V47.94h5v1.67a6.36,6.36,0,0,1,4.75-1.92C169.18,47.69,171.85,49.75,171.85,54.51Z"/><path class="cls-4" d="M190.41,42.28v21h-5V61.75A5.31,5.31,0,0,1,181,63.53c-4.08,0-7.37-3.06-7.37-8S177,47.69,181,47.69a5.38,5.38,0,0,1,4.13,1.58v-7Zm-5.16,13.3c0-2.32-1.35-3.62-3.11-3.62S179,53.26,179,55.58s1.35,3.68,3.14,3.68S185.25,57.93,185.25,55.58Z"/><path class="cls-4" d="M208.14,57H197.28a3.45,3.45,0,0,0,3.66,2.46,4.74,4.74,0,0,0,3.45-1.33L207.15,61c-1.43,1.64-3.53,2.49-6.37,2.49-5.32,0-8.77-3.37-8.77-8s3.5-7.89,8.22-7.89c4.41,0,8,2.88,8,8C208.22,56,208.17,56.54,208.14,57Zm-10.95-2.83h6.13a3.1,3.1,0,0,0-6.13,0Z"/><path class="cls-4" d="M225.29,47.94l-6.17,15.34h-5.41l-6.15-15.34h5.38l3.58,9.37,3.78-9.37Z"/><path class="cls-4" d="M241.53,47.94V63.28h-5V61.63a5.8,5.8,0,0,1-4.44,1.9c-3.66,0-6.34-2.15-6.34-7V47.94H231v7.7c0,2.37.91,3.31,2.48,3.31s2.81-1.05,2.81-3.62V47.94Z"/><path d="M250.72,61l1-2.2a9.81,9.81,0,0,0,6.37,2.29c3.33,0,4.77-1.33,4.77-3.06,0-4.84-11.69-1.78-11.69-9.14,0-3,2.31-5.65,7.38-5.65A11.15,11.15,0,0,1,264.78,45l-.91,2.26a9.82,9.82,0,0,0-5.3-1.61c-3.28,0-4.68,1.42-4.68,3.14,0,4.84,11.69,1.81,11.69,9.08,0,3-2.37,5.63-7.47,5.63A11.27,11.27,0,0,1,250.72,61Z"/><path d="M267.92,43.64a1.76,1.76,0,0,1,1.8-1.78,1.74,1.74,0,0,1,1.79,1.73,1.8,1.8,0,0,1-3.59,0Zm.47,4.64H271v15h-2.65Z"/><path d="M273.41,61.69l1.1-2.15a9.2,9.2,0,0,0,5.13,1.56c2.45,0,3.48-.77,3.48-2,0-3.37-9.24-.45-9.24-6.42,0-2.69,2.34-4.5,6.09-4.5a10.36,10.36,0,0,1,5.32,1.36l-1.13,2.15a7.45,7.45,0,0,0-4.22-1.19c-2.31,0-3.44.88-3.44,2.07,0,3.53,9.26.65,9.26,6.47,0,2.72-2.42,4.44-6.31,4.44A10.35,10.35,0,0,1,273.41,61.69Z"/><path d="M296.46,62.4a4.89,4.89,0,0,1-3.2,1c-2.95,0-4.63-1.66-4.63-4.69V50.52h-2.48V48.28h2.48V45h2.65v3.28h4.19v2.24h-4.19v8.12c0,1.61.82,2.51,2.29,2.51a3.27,3.27,0,0,0,2.06-.7Z"/><path d="M311.49,56.68H299.63a5,5,0,0,0,5.3,4.39,5.38,5.38,0,0,0,4.21-1.81L310.61,61a7.25,7.25,0,0,1-5.77,2.43c-4.71,0-7.85-3.19-7.85-7.66s3.11-7.64,7.33-7.64,7.22,3.11,7.22,7.72A7.83,7.83,0,0,1,311.49,56.68Zm-11.86-2H309a4.71,4.71,0,0,0-9.38,0Z"/><path d="M338.65,54.65v8.63H336V55c0-2.94-1.38-4.39-3.78-4.39-2.64,0-4.38,1.73-4.38,5v7.73h-2.65V55c0-2.94-1.38-4.39-3.77-4.39-2.65,0-4.39,1.73-4.39,5v7.73h-2.64v-15h2.53v2.24A5.87,5.87,0,0,1,322,48.14,5.38,5.38,0,0,1,327,50.91a6.54,6.54,0,0,1,5.63-2.77C336.22,48.14,338.65,50.23,338.65,54.65Z"/><path d="M342.24,43.64A1.76,1.76,0,0,1,344,41.86a1.73,1.73,0,0,1,1.79,1.73,1.79,1.79,0,0,1-3.58,0Zm.46,4.64h2.65v15H342.7Z"/></g></g></svg>