<?xml version="1.0" encoding="utf-8"?>
<!-- Generator: Adobe Illustrator 16.0.0, SVG Export Plug-In . SVG Version: 6.00 Build 0)  -->
<!DOCTYPE svg PUBLIC "-//W3C//DTD SVG 1.1//EN" "http://www.w3.org/Graphics/SVG/1.1/DTD/svg11.dtd">
<svg version="1.1" id="Layer_1" xmlns="http://www.w3.org/2000/svg" xmlns:xlink="http://www.w3.org/1999/xlink" x="0px" y="0px"
	 width="90px" height="26px" viewBox="0 0 90 26" enable-background="new 0 0 90 26" xml:space="preserve">
<g>
	<g>
		<path fill="#FFFFFF" d="M17.933,5.818h1.469c0.123,0.041,0.21,0.122,0.266,0.245l4.549,7.283V6.063
			c0-0.067,0.023-0.125,0.072-0.173c0.048-0.047,0.106-0.071,0.175-0.071h1.463c0.069,0,0.128,0.024,0.176,0.071
			c0.048,0.048,0.072,0.106,0.072,0.173v10.874c0,0.163-0.083,0.244-0.248,0.244h-1.462c-0.056,0-0.104-0.012-0.145-0.039
			c-0.042-0.027-0.097-0.096-0.166-0.205l-4.528-7.283v7.283c0,0.163-0.082,0.244-0.245,0.244h-1.449
			c-0.176,0-0.265-0.081-0.265-0.244V6.063c0-0.067,0.023-0.125,0.071-0.173C17.786,5.842,17.851,5.818,17.933,5.818z"/>
		<path fill="#FFFFFF" d="M33.703,15.937c-0.368,0.395-0.799,0.708-1.296,0.939c-0.497,0.23-1.031,0.347-1.601,0.347
			c-0.544,0-1.051-0.103-1.521-0.307c-0.468-0.204-0.88-0.485-1.233-0.847c-0.354-0.359-0.632-0.778-0.836-1.255
			c-0.204-0.476-0.306-0.993-0.306-1.55c0-0.543,0.088-1.057,0.266-1.54c0.177-0.483,0.425-0.904,0.745-1.265
			c0.319-0.361,0.703-0.643,1.152-0.847c0.449-0.204,0.945-0.306,1.489-0.306c0.843,0,1.563,0.235,2.163,0.704
			c0.599,0.47,1.02,1.071,1.265,1.806c0.083,0.231,0.146,0.51,0.194,0.836c0.047,0.327,0.05,0.742,0.01,1.245
			c0,0.067-0.023,0.126-0.071,0.173c-0.047,0.048-0.106,0.072-0.173,0.072h-4.896c0.163,0.325,0.398,0.591,0.704,0.796
			c0.305,0.203,0.656,0.305,1.051,0.305c0.448,0,0.856-0.143,1.223-0.429l0.246-0.245c0.108-0.107,0.231-0.107,0.367,0l1.061,1.001
			C33.798,15.679,33.798,15.801,33.703,15.937z M30.561,11.245c-0.38,0-0.7,0.1-0.958,0.301c-0.258,0.201-0.448,0.461-0.571,0.78
			h3.04c-0.123-0.318-0.316-0.579-0.581-0.78C31.225,11.345,30.915,11.245,30.561,11.245z"/>
		<path fill="#FFFFFF" d="M35.907,20.732c-0.165,0-0.211-0.09-0.144-0.267l1.163-3.529l-2.449-7.344
			c-0.027-0.068-0.009-0.126,0.052-0.174c0.061-0.047,0.125-0.071,0.193-0.071h1.572c0.082,0,0.139,0.024,0.172,0.071
			c0.033,0.048,0.065,0.106,0.091,0.174l1.387,4.243l1.428-4.243c0.027-0.068,0.058-0.126,0.092-0.174
			c0.035-0.047,0.085-0.071,0.153-0.071h1.572c0.066,0,0.132,0.024,0.193,0.071c0.061,0.048,0.078,0.106,0.05,0.174l-3.61,10.873
			c-0.027,0.081-0.075,0.146-0.143,0.194c-0.069,0.047-0.136,0.072-0.203,0.072H35.907z"/>
		<path fill="#FFFFFF" d="M44.166,8.511h-1.464c-0.164,0-0.246-0.088-0.246-0.266V6.9c0-0.068,0.023-0.126,0.071-0.174
			c0.049-0.047,0.107-0.071,0.175-0.071h1.464c0.068,0,0.127,0.024,0.175,0.071c0.048,0.047,0.072,0.106,0.072,0.174v1.345
			C44.413,8.423,44.331,8.511,44.166,8.511z M44.166,17.181h-1.464c-0.164,0-0.246-0.081-0.246-0.244V9.593
			c0-0.068,0.023-0.126,0.071-0.174c0.049-0.047,0.107-0.071,0.175-0.071h1.464c0.068,0,0.127,0.024,0.175,0.071
			c0.048,0.048,0.072,0.106,0.072,0.174v7.344C44.413,17.1,44.331,17.181,44.166,17.181z"/>
		<path fill="#FFFFFF" d="M47.351,17.181h-1.448c-0.178,0-0.266-0.081-0.266-0.244v-3.672v-0.142V9.593
			c0-0.068,0.023-0.126,0.072-0.174c0.047-0.047,0.112-0.071,0.194-0.071h1.448c0.068,0,0.125,0.024,0.173,0.071
			c0.048,0.048,0.071,0.106,0.071,0.174v0.082c0.45-0.246,0.975-0.368,1.575-0.368c0.531,0,1.011,0.102,1.44,0.306
			c0.429,0.204,0.8,0.483,1.114,0.836c0.313-0.354,0.685-0.633,1.114-0.836c0.429-0.204,0.908-0.306,1.44-0.306
			c0.545,0,1.039,0.102,1.482,0.306c0.442,0.204,0.817,0.486,1.124,0.847c0.307,0.36,0.542,0.782,0.704,1.265
			c0.165,0.483,0.246,0.997,0.246,1.54v3.734c-0.042,0.122-0.124,0.183-0.247,0.183h-1.465c-0.137,0-0.219-0.061-0.246-0.184v-3.746
			c0-0.56-0.133-1.034-0.396-1.423c-0.264-0.388-0.665-0.583-1.207-0.583c-0.513,0-0.895,0.181-1.145,0.542
			c-0.25,0.361-0.389,0.801-0.416,1.32v0.144v3.746c-0.013,0.123-0.095,0.184-0.247,0.184h-1.464c-0.138,0-0.22-0.061-0.247-0.184
			v-3.746v-0.144c-0.026-0.519-0.169-0.958-0.428-1.32c-0.259-0.362-0.646-0.542-1.163-0.542s-0.901,0.181-1.152,0.542
			c-0.253,0.361-0.392,0.801-0.419,1.32v3.827C47.595,17.1,47.514,17.181,47.351,17.181z"/>
		<path fill="#FFFFFF" d="M61.849,17.379c-0.109-0.022-0.208-0.065-0.295-0.131c-0.086-0.065-0.151-0.153-0.195-0.262L57.442,5.238
			c-0.043-0.108-0.017-0.2,0.083-0.277c0.097-0.076,0.199-0.115,0.31-0.115h2.512c0.131,0,0.224,0.039,0.277,0.115
			c0.055,0.077,0.104,0.168,0.146,0.277l2.318,6.983l2.349-6.983c0.043-0.108,0.093-0.2,0.146-0.277
			c0.054-0.076,0.136-0.115,0.246-0.115h2.479c0.11,0,0.213,0.039,0.312,0.115c0.098,0.077,0.123,0.168,0.081,0.277l-3.916,11.748
			c-0.045,0.108-0.119,0.202-0.228,0.278c-0.111,0.076-0.218,0.114-0.327,0.114H61.849z"/>
		<path fill="#FFFFFF" d="M75.742,17.181h-1.464c-0.165,0-0.247-0.081-0.247-0.244v-0.225c-0.611,0.341-1.272,0.511-1.979,0.511
			c-0.545,0-1.051-0.103-1.52-0.307c-0.471-0.204-0.881-0.485-1.235-0.847c-0.354-0.359-0.632-0.778-0.835-1.255
			c-0.204-0.476-0.307-0.993-0.307-1.55c0-0.543,0.103-1.057,0.307-1.54c0.203-0.483,0.481-0.904,0.835-1.265
			c0.354-0.361,0.765-0.643,1.235-0.847c0.469-0.204,0.975-0.306,1.52-0.306c0.721,0,1.38,0.182,1.979,0.545V9.589
			c0-0.066,0.021-0.124,0.062-0.171c0.041-0.047,0.104-0.071,0.186-0.071h1.464c0.068,0,0.128,0.024,0.176,0.071
			c0.048,0.048,0.071,0.106,0.071,0.174v7.344C75.989,17.1,75.908,17.181,75.742,17.181z M70.115,13.254
			c0,0.547,0.186,1.015,0.56,1.406c0.375,0.389,0.833,0.583,1.378,0.583c0.258,0,0.503-0.051,0.733-0.152
			c0.23-0.104,0.438-0.24,0.624-0.411c0.183-0.171,0.328-0.372,0.438-0.605c0.107-0.232,0.169-0.478,0.183-0.738v-0.082
			c0-0.274-0.052-0.533-0.153-0.778c-0.102-0.248-0.244-0.462-0.429-0.646c-0.183-0.185-0.396-0.328-0.632-0.431
			c-0.238-0.103-0.493-0.154-0.765-0.154c-0.272,0-0.527,0.051-0.765,0.154c-0.238,0.103-0.442,0.246-0.613,0.431
			c-0.17,0.184-0.305,0.399-0.406,0.646C70.165,12.721,70.115,12.98,70.115,13.254z"/>
		<path fill="#FFFFFF" d="M78.661,17.181h-1.448c-0.176,0-0.264-0.081-0.264-0.244V9.593c0-0.068,0.022-0.126,0.069-0.174
			c0.048-0.047,0.114-0.071,0.194-0.071h1.448c0.068,0,0.126,0.024,0.176,0.071c0.047,0.048,0.07,0.106,0.07,0.174v0.285
			c0.285-0.164,0.592-0.292,0.917-0.388c0.327-0.095,0.667-0.143,1.021-0.143c0.163,0.015,0.246,0.109,0.246,0.286v1.428
			c-0.028,0.176-0.11,0.265-0.246,0.265c-0.259,0-0.502,0.048-0.734,0.143c-0.231,0.096-0.435,0.232-0.611,0.408
			c-0.178,0.177-0.319,0.382-0.429,0.613c-0.11,0.231-0.163,0.482-0.163,0.754v3.693C78.907,17.1,78.825,17.181,78.661,17.181z"/>
		<path fill="#FFFFFF" d="M85.395,7.715c-0.273,0-0.515,0.031-0.725,0.092c-0.211,0.062-0.4,0.147-0.571,0.256
			c-0.17,0.108-0.334,0.241-0.489,0.397c-0.156,0.156-0.316,0.33-0.48,0.52L83.108,9c-0.122,0.123-0.251,0.123-0.388,0l-1.039-1
			c-0.097-0.108-0.097-0.23,0-0.366c0.502-0.565,1.037-1.016,1.601-1.353c0.564-0.337,1.268-0.504,2.112-0.504
			c1.102,0,1.995,0.293,2.682,0.877c0.687,0.586,1.031,1.429,1.031,2.529c0,0.449-0.079,0.86-0.234,1.233
			c-0.157,0.374-0.365,0.718-0.623,1.031s-0.551,0.602-0.876,0.866c-0.327,0.266-0.661,0.521-0.999,0.766v1.143
			c0,0.068-0.026,0.125-0.073,0.173s-0.112,0.071-0.194,0.071H84.68c-0.082,0-0.146-0.023-0.193-0.071s-0.071-0.104-0.071-0.173
			v-1.918c0-0.136,0.075-0.258,0.224-0.367c0.326-0.217,0.639-0.435,0.939-0.653c0.299-0.217,0.566-0.438,0.806-0.662
			c0.237-0.225,0.426-0.457,0.561-0.694c0.136-0.239,0.205-0.487,0.205-0.745c0-0.422-0.154-0.772-0.46-1.051
			C86.384,7.855,85.951,7.715,85.395,7.715z M86.107,15.346c0.177,0,0.268,0.081,0.268,0.245v1.346c0,0.067-0.026,0.126-0.073,0.174
			s-0.112,0.07-0.194,0.07H84.68c-0.082,0-0.146-0.022-0.193-0.07s-0.071-0.106-0.071-0.174v-1.346c0-0.164,0.087-0.245,0.265-0.245
			H86.107z"/>
	</g>
	<g>
		<linearGradient id="SVGID_1_" gradientUnits="userSpaceOnUse" x1="4.5" y1="3.0996" x2="7.7385" y2="17.3488">
			<stop  offset="0" style="stop-color:#FFFFFF"/>
			<stop  offset="1" style="stop-color:#B4B4B4"/>
		</linearGradient>
		<path fill="url(#SVGID_1_)" d="M9.555,4.055c0,0-2.883,1.129-3.645,3.596c-0.834,2.701-0.391,5.086,1.585,9.076
			c0,0-3.447-1.387-5.341-4.69c-2.348-4.094-0.916-7.342,0.271-8.378C4.449,1.889,7.766,1.654,9.555,4.055z"/>
		<linearGradient id="SVGID_2_" gradientUnits="userSpaceOnUse" x1="8.2827" y1="18.834" x2="14.4217" y2="4.4339">
			<stop  offset="0" style="stop-color:#FFFFFF"/>
			<stop  offset="1" style="stop-color:#B4B4B4"/>
		</linearGradient>
		<path fill="url(#SVGID_2_)" d="M9.45,10.443c1.849-1.192,2.492-1.592,4.567-3.429c1.895-1.677,1.134-2.987,1.134-2.987
			s1.997,1.926-0.141,6.616c-0.958,2.099-3.254,3.683-5.026,4.69c-1.649,0.938-1.151,3.858-1.151,3.858s-1.262-2.482-1.492-3.667
			C6.987,13.699,7.851,11.475,9.45,10.443z"/>
		<linearGradient id="SVGID_3_" gradientUnits="userSpaceOnUse" x1="10.3301" y1="19.709" x2="16.4666" y2="5.3147">
			<stop  offset="0" style="stop-color:#FFFFFF"/>
			<stop  offset="1" style="stop-color:#CDCCCC"/>
		</linearGradient>
		<circle fill="url(#SVGID_3_)" cx="9.501" cy="21.653" r="2.054"/>
		<linearGradient id="SVGID_4_" gradientUnits="userSpaceOnUse" x1="5.7905" y1="5.8994" x2="15.3022" y2="5.8994">
			<stop  offset="0" style="stop-color:#989898"/>
			<stop  offset="1" style="stop-color:#FFFFFF"/>
		</linearGradient>
		<path fill="url(#SVGID_4_)" d="M15.17,4.066c-1.653-2.037-5.616-0.012-5.616-0.012h0C9.55,4.056,6.67,5.186,5.91,7.65
			C5.866,7.792,5.827,7.935,5.791,8.076c3.995-4.054,8.398-1.833,6.37,0.564c0.228-0.196,1.586-1.386,1.856-1.625
			C15.722,5.506,15.277,4.294,15.17,4.066z"/>
	</g>
</g>
</svg>
